<?xml version="1.0" standalone="no"?>
<!DOCTYPE svg PUBLIC "-//W3C//DTD SVG 20010904//EN"
 "http://www.w3.org/TR/2001/REC-SVG-20010904/DTD/svg10.dtd">
<svg version="1.0" xmlns="http://www.w3.org/2000/svg"
 width="200.000000pt" height="200.000000pt" viewBox="0 0 200.000000 200.000000"
 preserveAspectRatio="xMidYMid meet">
<metadata>
Created by potrace 1.14, written by Peter Selinger 2001-2017
</metadata>
<g transform="translate(0.000000,200.000000) scale(0.100000,-0.100000)"
fill="#000000" stroke="none">
<path d="M1246 1668 c-3 -13 -7 -72 -11 -133 -3 -60 -10 -164 -15 -230 -19
-241 -11 -343 30 -365 29 -15 33 2 20 83 -8 54 -8 142 1 352 7 155 10 289 6
298 -9 24 -26 21 -31 -5z"/>
<path d="M1435 1680 c-9 -14 -23 -252 -31 -500 -6 -200 0 -232 44 -238 21 -3
21 -1 14 45 -8 56 -9 218 -2 497 4 146 2 200 -7 203 -6 2 -14 -1 -18 -7z"/>
<path d="M629 1638 c-10 -10 -22 -59 -33 -134 -9 -66 -21 -150 -27 -188 -5
-38 -12 -73 -15 -77 -4 -7 -65 -21 -151 -34 -22 -4 -49 -12 -59 -20 -18 -13
-18 -14 0 -34 22 -24 42 -27 49 -7 3 7 27 16 54 20 26 4 60 9 75 12 l27 5 -1
-105 c-2 -68 2 -110 9 -117 21 -21 33 2 33 65 0 35 3 84 6 109 6 42 10 47 44
61 21 8 61 18 89 22 33 4 51 11 51 20 0 11 -19 14 -80 14 l-80 0 0 71 c0 39 7
113 16 164 8 50 14 109 12 130 -3 35 -4 37 -19 23z"/>
<path d="M48 1210 c-25 -16 -23 -57 5 -74 12 -8 54 -27 92 -41 118 -45 119
-59 3 -89 -70 -19 -105 -45 -94 -71 4 -11 11 -13 23 -7 10 5 48 16 85 25 36 9
82 23 102 31 32 13 36 19 36 50 0 42 -21 61 -116 101 -61 26 -66 30 -44 36 14
4 51 7 83 8 58 1 75 13 35 25 -45 13 -193 17 -210 6z"/>
<path d="M885 1131 c-130 -65 -179 -136 -120 -175 35 -23 69 -20 169 18 l88
34 43 -39 c45 -42 65 -49 65 -23 0 21 -55 100 -75 108 -8 3 -59 -10 -111 -29
-102 -37 -144 -43 -144 -22 0 34 140 120 187 115 22 -2 28 1 28 17 0 33 -59
31 -130 -4z"/>
<path d="M1682 1125 c-65 -33 -142 -101 -142 -125 0 -22 49 -60 77 -60 15 0
66 14 113 30 46 17 91 30 100 30 9 0 31 -16 50 -35 34 -36 60 -45 60 -22 -1
23 -58 104 -78 109 -11 3 -51 -6 -88 -19 -104 -38 -139 -47 -157 -40 -29 11
-7 36 72 83 57 33 83 43 103 39 30 -7 45 9 28 30 -20 24 -62 17 -138 -20z"/>
<path d="M807 776 c4 -19 3 -20 -7 -3 -10 15 -21 17 -73 13 -34 -3 -75 -9 -92
-12 -16 -4 -41 -8 -55 -9 -14 -1 -27 -3 -30 -4 -3 -2 -30 -5 -59 -7 -30 -3
-60 -9 -65 -13 -6 -5 -29 -9 -51 -9 -51 -1 -190 -28 -213 -41 -11 -7 -13 -10
-3 -11 10 0 11 -3 2 -14 -12 -14 -5 -66 8 -66 5 0 14 -18 21 -40 11 -34 18
-41 47 -46 19 -4 67 -4 106 0 40 4 80 7 90 7 9 0 17 4 17 9 0 5 7 7 15 4 8 -4
15 -2 15 2 0 5 35 10 78 11 42 2 97 6 122 9 79 12 92 13 270 18 206 6 446 -7
547 -30 39 -9 81 -13 92 -9 12 3 58 0 103 -8 46 -8 103 -15 128 -16 l45 -1
-25 21 c-24 20 -24 20 -3 16 15 -3 33 5 54 24 18 16 27 29 21 29 -7 0 -12 6
-12 14 0 27 -158 94 -260 111 -19 3 -42 8 -50 10 -8 2 -33 7 -55 10 -22 3 -55
7 -72 10 -27 3 -33 1 -33 -15 0 -14 -5 -18 -16 -13 -13 5 -13 7 -2 14 11 7 10
11 -2 19 -9 6 -18 6 -24 0 -6 -6 -19 -10 -30 -9 -12 0 -15 3 -8 6 6 2 10 8 7
13 -6 10 -55 0 -55 -12 0 -6 -9 -8 -20 -5 -10 3 -22 0 -25 -7 -3 -6 -3 -1 -1
12 3 16 -1 22 -15 22 -10 0 -19 -4 -19 -10 0 -15 -21 -12 -40 5 -15 14 -21 14
-53 0 -21 -8 -37 -20 -37 -25 0 -6 -4 -10 -8 -10 -5 0 -9 7 -9 15 0 8 4 15 8
15 5 0 6 7 2 16 -5 13 -7 13 -14 2 -6 -8 -12 -9 -16 -3 -11 13 -103 18 -103 5
0 -5 -7 -10 -15 -10 -8 0 -15 4 -15 10 0 5 -26 9 -59 8 -53 -2 -58 -3 -54 -22z
m7 -18 c19 16 75 20 80 6 8 -20 -2 -22 -81 -21 -55 0 -70 3 -66 13 3 8 9 11
14 8 5 -3 9 0 9 6 0 7 7 5 16 -5 10 -10 20 -12 28 -7z m179 -4 c-7 -19 -83
-19 -83 0 0 16 31 24 67 18 14 -3 20 -9 16 -18z m66 2 c-2 -2 -16 -7 -32 -11
-33 -9 -38 12 -4 24 20 8 47 -2 36 -13z m136 -6 c11 -13 14 -20 6 -20 -13 0
-41 24 -41 34 0 12 18 5 35 -14z m-512 -7 c-7 -2 -19 -2 -25 0 -7 3 -2 5 12 5
14 0 19 -2 13 -5z m877 -23 c0 -5 -5 -10 -11 -10 -5 0 -7 5 -4 10 3 6 8 10 11
10 2 0 4 -4 4 -10z m-657 -50 c4 0 7 7 7 15 0 8 7 15 15 15 11 0 15 -11 15
-40 0 -44 -5 -47 -38 -24 -21 14 -22 14 -22 -5 0 -12 -4 -21 -10 -21 -5 0 -10
21 -10 47 0 44 1 45 18 30 10 -10 22 -17 25 -17z m167 19 c0 -8 5 -7 15 1 20
16 32 5 16 -14 -10 -11 -10 -20 -1 -36 15 -27 6 -37 -16 -19 -14 11 -18 11
-21 1 -9 -24 -23 0 -23 39 0 28 4 39 15 39 8 0 15 -5 15 -11z m100 -35 c0 -28
-4 -44 -11 -42 -6 2 -10 7 -10 11 1 4 1 23 1 42 0 19 5 35 10 35 6 0 10 -21
10 -46z m-452 -6 c-2 -24 -7 -43 -13 -43 -5 0 -11 19 -13 43 -3 33 0 42 13 42
13 0 16 -9 13 -42z m92 10 c11 -18 20 -36 20 -39 0 -4 -18 -6 -40 -6 -22 0
-40 1 -40 3 0 6 34 74 37 74 2 0 12 -15 23 -32z m460 22 c0 -5 -7 -10 -15 -10
-10 0 -15 -10 -15 -30 0 -16 -4 -30 -10 -30 -5 0 -10 14 -10 30 0 17 -4 30
-10 30 -5 0 -10 5 -10 10 0 6 16 10 35 10 19 0 35 -4 35 -10z m74 4 c24 -9 19
-26 -6 -22 -17 2 -23 -2 -23 -17 0 -11 7 -20 15 -20 25 0 27 -20 2 -23 -30 -4
-52 14 -52 44 0 32 32 50 64 38z m-724 -30 c0 -17 6 -28 20 -31 30 -8 24 -23
-10 -23 -28 0 -30 2 -30 40 0 22 5 40 10 40 6 0 10 -12 10 -26z m790 6 c0 -11
5 -20 11 -20 6 0 13 9 16 20 9 36 23 21 23 -25 0 -33 -4 -45 -15 -45 -8 0 -15
7 -15 15 0 20 -16 19 -24 -1 -3 -8 -10 -12 -16 -9 -18 11 -9 85 11 85 5 0 9
-9 9 -20z m-948 -18 c-7 -2 -9 -15 -5 -33 4 -22 2 -29 -11 -29 -11 0 -16 9
-16 30 0 20 -5 30 -15 30 -29 0 -14 19 18 22 30 3 52 -12 29 -20z m88 -4 c23
-38 25 -51 8 -45 -7 2 -23 0 -35 -4 -12 -5 -24 -5 -27 -1 -4 7 23 82 30 82 2
0 13 -15 24 -32z m1000 17 c0 -9 -6 -12 -15 -9 -18 7 -20 -12 -2 -19 9 -4 8
-8 -3 -16 -13 -9 -13 -11 3 -11 9 0 17 -4 17 -10 0 -5 -9 -10 -19 -10 -39 0
-47 9 -43 50 4 37 7 40 33 40 19 0 29 -5 29 -15z m84 -35 c3 0 6 7 6 15 0 8 5
15 10 15 6 0 10 -18 10 -40 0 -42 -9 -50 -30 -25 -7 8 -16 15 -21 15 -5 0 -9
-7 -9 -15 0 -8 -4 -15 -10 -15 -11 0 -14 73 -3 84 4 4 15 -2 24 -13 10 -12 20
-21 23 -21z m-1253 -14 c3 -20 2 -39 -3 -42 -9 -6 -28 38 -28 67 0 35 25 15
31 -25z"/>
</g>
</svg>
